<svg xmlns="http://www.w3.org/2000/svg" viewBox="0 0 64 64">
  <path fill="#7c3aed" d="M14 7h33c7 0 12 5 12 12v20c0 7-5 12-12 12H28L14 61V51C7 51 3 46 3 39V19C3 12 7 7 14 7z"/>
  <path fill="#fff" d="M22 20h18c5 0 8 4 9 9l3 10c1 5-5 8-9 4l-5-5H24l-5 5c-4 4-10 1-9-4l3-10c1-5 4-9 9-9z"/>
  <path fill="#7c3aed" d="M20 25h4v5h5v4h-5v5h-4v-5h-5v-4h5z"/>
  <circle cx="39" cy="28" r="3" fill="#7c3aed"/>
  <circle cx="45" cy="34" r="3" fill="#7c3aed"/>
  <path fill="#6ddfea" d="m51 1 3 7 7 3-7 3-3 7-3-7-7-3 7-3z"/>
</svg>
